<?xml version="1.0" standalone="no"?>
<!DOCTYPE svg PUBLIC "-//W3C//DTD SVG 20010904//EN"
 "http://www.w3.org/TR/2001/REC-SVG-20010904/DTD/svg10.dtd">
<svg version="1.0" xmlns="http://www.w3.org/2000/svg"
 width="682.000000pt" height="679.000000pt" viewBox="0 0 682.000000 679.000000"
 preserveAspectRatio="xMidYMid meet">

<g transform="translate(0.000000,679.000000) scale(0.100000,-0.100000)"
fill="#000000" stroke="none">
<path d="M2960 6090 c-546 -41 -1091 -300 -1510 -720 -536 -537 -830 -1321
-780 -2082 10 -164 37 -352 65 -463 8 -33 17 -67 19 -75 59 -233 166 -493 291
-705 717 -1215 2219 -1705 3501 -1142 642 282 1179 846 1418 1490 39 105 100
309 110 367 3 19 12 71 20 115 51 277 48 628 -9 906 -8 41 -17 86 -19 100 -10
55 -61 220 -102 328 -49 125 -174 377 -205 409 -10 12 -19 24 -19 27 0 14
-107 162 -174 243 -406 481 -949 769 -1551 822 -124 11 -319 7 -425 -9 -38 -6
-23 -9 94 -20 162 -15 374 -57 501 -99 175 -58 421 -153 480 -185 395 -214
634 -444 870 -837 30 -51 55 -96 55 -99 0 -4 12 -32 26 -62 76 -157 143 -386
176 -599 19 -129 16 -573 -5 -640 -2 -8 -14 -62 -26 -120 -50 -238 -153 -490
-286 -700 -200 -315 -450 -563 -820 -812 -196 -133 -225 -156 -241 -193 -9
-23 -23 -35 -51 -43 -385 -123 -600 -158 -1078 -177 -82 -3 -162 -8 -177 -11
-82 -16 30 -66 237 -105 111 -21 426 -23 573 -5 592 76 1136 374 1531 841 451
532 650 1250 535 1930 -24 141 -72 321 -109 410 -7 17 -21 52 -30 80 -10 27
-47 106 -81 175 -68 135 -60 131 23 -12 85 -148 157 -336 202 -528 42 -177 55
-297 55 -515 0 -261 -10 -350 -70 -595 -14 -58 -27 -112 -29 -120 -2 -8 -24
-68 -49 -134 -230 -598 -660 -1072 -1229 -1352 -236 -115 -468 -189 -727 -229
-160 -25 -457 -31 -620 -11 -163 19 -159 18 -326 61 -518 133 -1001 456 -1376
920 -53 66 -133 165 -176 220 -44 55 -90 109 -102 120 l-23 20 6 -32 c7 -36
88 -209 136 -291 17 -28 29 -52 26 -52 -15 0 -121 169 -214 340 -59 108 -160
397 -205 580 -57 235 -92 516 -112 880 -7 132 -14 155 -37 119 -55 -86 -81
-255 -82 -524 0 -235 5 -302 36 -460 144 -747 647 -1412 1349 -1783 219 -116
558 -234 765 -267 22 -3 47 -10 55 -15 27 -17 -91 4 -340 60 -49 11 -189 61
-293 104 -608 252 -1108 732 -1387 1329 -107 228 -174 450 -217 719 -24 150
-24 524 0 673 49 298 147 548 255 647 62 57 68 45 48 -94 -25 -177 -20 -294
13 -274 17 11 61 104 131 281 64 158 196 434 185 385 -36 -167 -13 -154 200
114 327 411 602 645 1075 916 191 110 264 162 280 200 12 28 11 33 -11 56 -13
13 -47 32 -76 40 -29 8 -55 19 -58 24 -15 25 77 34 355 35 157 0 290 4 297 8
23 15 1 36 -60 56 -115 38 -301 54 -477 41z"/>
<path d="M2960 5021 c0 -5 15 -14 33 -21 49 -20 95 -57 114 -93 34 -65 42
-146 43 -400 l0 -248 168 -241 167 -240 3 436 2 436 44 0 c26 0 46 -5 49 -12
9 -27 16 2 25 102 11 133 33 186 94 228 25 17 57 34 71 38 77 19 -7 24 -393
24 -235 0 -420 -4 -420 -9z"/>
<path d="M2096 4591 c73 -34 110 -78 130 -153 22 -82 21 -1369 -1 -1453 -21
-78 -52 -117 -122 -152 l-58 -28 975 -3 c536 -1 981 0 988 3 9 3 12 37 12 120
0 108 -1 115 -20 115 -19 0 -20 7 -20 250 l0 250 -166 0 -166 0 24 -32 c13
-18 55 -78 93 -133 38 -55 84 -119 102 -142 l34 -42 -23 -12 c-67 -36 -114
-39 -650 -39 l-528 0 0 613 c0 665 3 705 53 771 16 20 53 47 90 65 l62 30
-435 1 -435 0 61 -29z"/>
<path d="M4882 3699 c-37 -73 -76 -109 -148 -135 -42 -15 -93 -18 -357 -22
l-307 -4 2 -166 3 -167 418 -3 c331 -2 419 0 422 11 3 7 4 134 3 282 l-3 269
-33 -65z"/>
<path d="M4448 2733 c-7 -21 -13 -76 -13 -123 0 -111 27 -198 100 -318 30 -50
55 -94 55 -96 0 -3 -26 10 -57 27 -59 33 -87 76 -43 64 14 -3 20 -1 17 6 -7
23 -45 20 -52 -4 -9 -27 22 -57 112 -107 43 -24 73 -52 111 -101 93 -122 175
-182 205 -152 8 8 -2 24 -38 62 -30 31 -42 49 -30 45 47 -17 154 -36 208 -36
64 0 122 21 138 51 8 15 4 21 -23 35 -30 16 -31 18 -14 28 37 22 87 69 102 97
14 27 13 29 -14 43 -15 8 -48 41 -74 74 -31 40 -58 64 -81 71 -33 11 -35 14
-34 59 1 56 -79 245 -106 250 -25 5 -105 -55 -139 -103 l-30 -43 -95 61 c-52
33 -111 80 -131 104 -20 24 -42 43 -48 43 -7 0 -18 -17 -26 -37z m213 -136
c78 -48 159 -125 159 -151 0 -8 -16 -23 -35 -32 -34 -16 -65 -57 -65 -85 0
-17 30 -49 46 -49 28 0 74 52 80 91 6 35 10 39 35 39 58 0 106 -63 149 -195
17 -53 34 -81 67 -115 l45 -44 -22 -18 c-48 -39 -209 -18 -339 44 -134 63
-273 242 -316 408 -18 67 -19 169 -3 222 l11 39 56 -54 c31 -29 90 -75 132
-100z m298 11 c48 -104 56 -138 41 -183 -13 -41 -18 -42 -62 -15 -18 11 -48
20 -65 20 -22 0 -33 5 -33 14 0 8 -16 35 -35 61 -24 31 -34 53 -30 65 8 25
112 120 131 120 9 0 31 -33 53 -82z m-129 -226 c0 -38 -27 -74 -53 -70 -33 5
-32 35 1 68 38 37 52 38 52 2z m239 -6 c15 -8 40 -33 56 -56 16 -23 41 -52 57
-65 15 -13 28 -27 28 -31 0 -18 -52 -72 -80 -84 -40 -17 -53 -5 -80 75 -11 33
-30 82 -42 108 -19 41 -20 50 -8 58 21 12 37 11 69 -5z m-276 -361 c69 -60 79
-75 51 -75 -18 0 -126 106 -145 142 -14 27 -18 30 94 -67z"/>
<path d="M2070 2175 l0 -245 145 0 145 0 0 25 0 25 -120 0 -120 0 0 220 0 220
-25 0 -25 0 0 -245z"/>
<path d="M2450 2175 l0 -245 30 0 30 0 0 245 0 245 -30 0 -30 0 0 -245z"/>
<path d="M2620 2415 c0 -3 32 -57 71 -120 l70 -114 -72 -118 c-39 -65 -74
-122 -76 -126 -3 -5 10 -7 28 -5 30 3 38 12 94 103 34 55 66 100 70 100 5 0
34 -42 66 -94 69 -113 70 -113 103 -109 l27 3 -76 123 -75 122 70 114 c39 63
70 117 70 120 0 3 -12 6 -27 6 -24 0 -36 -12 -86 -95 -32 -52 -62 -97 -67
-100 -4 -3 -36 40 -70 95 -55 90 -64 100 -90 100 -17 0 -30 -2 -30 -5z"/>
<path d="M3100 2175 l0 -245 145 0 145 0 0 25 0 25 -120 0 -120 0 0 220 0 220
-25 0 -25 0 0 -245z"/>
<path d="M3480 2175 l0 -245 30 0 30 0 0 245 0 245 -30 0 -30 0 0 -245z"/>
<path d="M3690 2175 l0 -245 25 0 25 0 0 202 c0 111 4 198 8 193 5 -6 40 -97
78 -203 l69 -193 30 3 c29 3 31 7 100 196 38 105 73 192 77 192 4 0 8 -88 8
-195 l0 -195 25 0 25 0 0 246 0 245 -42 -3 -42 -3 -71 -197 c-39 -108 -73
-200 -77 -203 -3 -3 -39 87 -79 200 l-74 205 -42 0 -43 0 0 -245z"/>
</g>
</svg>
